<svg width="22" height="26" viewBox="0 0 22 26" fill="none" xmlns="http://www.w3.org/2000/svg">
<path d="M20.6485 3.65634H16.7271L17.101 1.52353H18.5156C18.9363 1.52353 19.2774 1.18248 19.2774 0.76181C19.2774 0.341138 18.9363 9.15527e-05 18.5156 9.15527e-05H16.4613C16.0913 9.15527e-05 15.7749 0.265881 15.711 0.630287L15.1805 3.65634H1.35158C0.930906 3.65634 0.589859 3.99739 0.589859 4.41806V8.07431C0.589859 8.49498 0.930906 8.83603 1.35158 8.83603H2.6464C2.85166 10.52 2.99613 11.7044 3.15934 13.0422C6.44291 13.7926 6.99815 15.8438 11 15.8438C14.9943 15.8438 15.5649 13.7918 18.8407 13.0416C18.9493 12.1513 19.245 9.72704 19.3536 8.83603H20.6485C21.0691 8.83603 21.4102 8.49498 21.4102 8.07431V4.41806C21.4102 3.99739 21.0691 3.65634 20.6485 3.65634Z" fill="#F5BA3C"/>
<path d="M11 17.3674C6.84614 17.3674 5.77948 15.4403 3.35823 14.6725L4.28672 22.2838C4.28672 22.2838 4.28672 22.2839 4.28672 22.2839L4.65793 25.3307C4.70454 25.7128 5.02904 26.0002 5.41406 26.0002H16.5859C16.971 26.0002 17.2955 25.7128 17.3421 25.3307L17.4666 24.3086C17.4666 24.3086 18.6419 14.6716 18.6419 14.6715C16.2242 15.4388 15.1537 17.3674 11 17.3674ZM15.9115 24.4767H6.08859L5.90298 22.9533H16.0972C16.0283 23.5182 15.9744 23.9599 15.9115 24.4767Z" fill="#F5BA3C"/>
</svg>
