<svg width="25" height="26" viewBox="0 0 25 26" fill="none" xmlns="http://www.w3.org/2000/svg">
<path d="M17.978 0.761749C17.978 0.341077 17.6369 3.05176e-05 17.2163 3.05176e-05H14.1694C13.7487 3.05176e-05 13.4077 0.341077 13.4077 0.761749V2.08206H17.978V0.761749Z" fill="#0CD4DC"/>
<path d="M4.5485 22.003C3.87778 21.6073 3.25876 21.1277 2.70865 20.5776C2.66848 20.5375 2.62928 20.4965 2.58997 20.4557C1.68297 20.9075 0.863359 21.5389 0.184972 22.3252C-0.0616217 22.6111 -0.0616217 23.0345 0.184972 23.3204C1.65407 25.0233 3.78546 26 6.03254 26C6.7028 26 7.3625 25.9125 7.99767 25.7453C7.20025 24.9039 6.54908 23.9406 6.06559 22.898L4.5485 22.003Z" fill="#0CD4DC"/>
<path d="M5.32266 20.691C5.1629 19.9579 5.07952 19.2036 5.07952 18.4394C5.07952 16.7099 5.50059 15.0419 6.26876 13.5589C5.03874 12.9448 3.65297 12.6638 2.24948 12.7672C1.87293 12.7949 1.57353 13.0943 1.5458 13.4708C1.38051 15.7139 2.19702 17.9116 3.78591 19.5005C4.25072 19.9653 4.76777 20.3636 5.32266 20.691Z" fill="#0CD4DC"/>
<path d="M20.0645 10.4683C18.8431 9.79713 18.1426 8.61296 18.1426 7.21942V5.12581C18.5337 5.09362 18.8412 4.76664 18.8412 4.36729C18.8412 3.96724 18.5325 3.63985 18.1405 3.60867C18.1403 3.60664 13.2451 3.60664 13.245 3.60867C12.853 3.63985 12.5443 3.96724 12.5443 4.36729C12.5443 4.76664 12.8518 5.09362 13.2429 5.12581V7.21942C13.2429 8.61291 12.5424 9.79708 11.321 10.4683C9.32181 11.5668 7.84296 13.3521 7.11287 15.4376H24.2726C23.5425 13.352 22.0637 11.5668 20.0645 10.4683Z" fill="#0CD4DC"/>
<path d="M24.661 16.961H6.72455C6.64477 17.4451 6.60298 17.9391 6.60298 18.4393C6.60298 21.3819 8.03806 24.1559 10.4418 25.8597C10.5706 25.951 10.7245 26 10.8823 26H20.5032C20.6611 26 20.815 25.951 20.9437 25.8597C23.3475 24.1559 24.7826 21.3819 24.7826 18.4393C24.7827 17.9392 24.7408 17.4451 24.661 16.961Z" fill="#0CD4DC"/>
</svg>
