<svg width="21" height="27" viewBox="0 0 21 27" fill="none" xmlns="http://www.w3.org/2000/svg">
<path d="M11.0714 8.25196C11.5355 7.47698 12.2698 6.36783 13.1974 5.30355H13.1984C13.984 4.40029 15.5223 3.24099 15.5223 3.24099C15.7536 3.06625 15.7288 2.82288 15.4659 2.70041L13.6065 1.83146C13.3436 1.70845 12.9862 1.7982 12.812 2.02995C12.812 2.02995 11.4367 4.00277 9.81811 8.20233C4.81338 5.93864 0.0562439 9.10929 0.0562439 14.6228C0.0562439 20.3819 4.48712 29.1299 10.4791 26.4893C16.7899 29.2202 20.9051 20.3824 20.9051 14.6228C20.9051 9.06178 16.6289 5.80138 11.0714 8.25196Z" fill="#F8644A"/>
<path d="M9.95056 6.38682C10.2399 6.36253 10.4954 6.10649 10.5186 5.81773C10.5186 5.81773 10.7044 3.56564 9.13492 1.99457C7.56065 0.422964 5.31274 0.610374 5.31274 0.610374C5.02344 0.634658 4.76792 0.890696 4.74416 1.17947C4.74416 1.17947 4.55517 3.43261 6.1268 5.00421C7.69738 6.57423 9.95056 6.38682 9.95056 6.38682Z" fill="#F8644A"/>
</svg>
