<svg width="25" height="27" viewBox="0 0 25 27" fill="none" xmlns="http://www.w3.org/2000/svg">
<path d="M21.7526 9.04076C19.492 9.98271 17.1364 10.5783 14.7227 10.8206L15.8606 8.84969L19.7407 9.08261C20.1717 9.10847 20.5421 8.78006 20.568 8.34909C20.5938 7.91812 20.2654 7.54776 19.8344 7.52185L16.7347 7.33579L17.4241 6.14158L21.3043 6.3745C21.7353 6.40035 22.1057 6.07195 22.1315 5.64098C22.1574 5.21 21.829 4.83964 21.398 4.81374L18.2982 4.62768L19.1642 3.12774C20.0277 1.63202 21.9402 1.11959 23.4359 1.9831C24.9316 2.84666 25.4441 4.75917 24.5805 6.25489L23.3584 8.37166L21.7526 9.04076Z" fill="#AE80FF"/>
<path d="M12.2309 10.9451C11.1935 10.9451 10.1643 10.881 9.14613 10.7539C9.11872 10.5609 9.10371 10.3639 9.10371 10.1633C9.10371 7.86053 10.9705 5.99377 13.2732 5.99377C14.0401 5.99377 14.7581 6.20173 15.3754 6.56297L12.8498 10.9375C12.6438 10.9425 12.4375 10.9451 12.2309 10.9451Z" fill="#AE80FF"/>
<path d="M8.09197 7.71036C7.51429 6.18265 7.40848 5.03305 7.40697 5.01544C7.37033 4.58525 6.99179 4.26721 6.56176 4.30266C6.13156 4.33924 5.81244 4.71768 5.84903 5.14787C5.85856 5.26014 6.07569 7.61973 7.54123 10.2166C7.54212 10.312 7.54603 10.4066 7.55155 10.5009C5.89974 10.1831 4.28139 9.69584 2.70905 9.04071L1.76804 8.64861C1.89167 8.34554 2.06408 8.06305 2.28011 7.81387C1.21881 7.34329 0.503996 6.28652 0.503996 5.08168C0.503996 3.42919 1.84836 2.08483 3.50085 2.08483C3.7627 2.08483 4.02188 2.11996 4.2756 2.18954C4.62996 0.912824 5.79107 6.10352e-05 7.14919 6.10352e-05C8.47192 6.10352e-05 9.61709 0.862373 10.0029 2.09848C10.0951 2.08936 10.1859 2.08483 10.2763 2.08483C11.7053 2.08483 12.9032 3.09052 13.2012 4.43113C10.9477 4.45901 9.00328 5.79347 8.09197 7.71036Z" fill="#AE80FF"/>
<path d="M2.10768 10.4841C5.33193 11.8276 8.73786 12.5087 12.2308 12.5087C15.7238 12.5087 19.1297 11.8276 22.354 10.4841C22.9024 10.2556 23.4953 10.6982 23.432 11.289C23.1715 13.7199 22.2288 22.6131 22.0179 24.589C21.8903 25.7839 20.8877 26.6851 19.6858 26.6851H4.77592C3.57394 26.6851 2.57138 25.7839 2.44379 24.5889C2.23287 22.6131 1.29013 13.7198 1.0297 11.289C0.96637 10.6982 1.55923 10.2556 2.10768 10.4841ZM6.23713 21.4732C6.23713 21.905 6.58716 22.255 7.01892 22.255H17.4428C17.8745 22.255 18.2245 21.905 18.2245 21.4732V17.3037C18.2245 16.8719 17.8745 16.5219 17.4428 16.5219H7.01892C6.58716 16.5219 6.23713 16.8719 6.23713 17.3037V21.4732Z" fill="#AE80FF"/>
<path d="M16.6609 18.0854H7.80067V20.6913H16.6609V18.0854Z" fill="#AE80FF"/>
</svg>
