<svg width="25" height="29" viewBox="0 0 25 29" fill="none" xmlns="http://www.w3.org/2000/svg">
<path d="M25.7708 1.8316C23.5433 0.545913 20.4725 0.491728 17.7584 1.69053C15.2471 2.80031 13.4368 5.24564 12.3667 7.08332C11.885 6.96586 11.3696 7.19489 11.1459 7.66101C10.9319 8.10672 11.0569 8.62383 11.413 8.93279C11.3154 9.15003 11.2559 9.29593 11.2334 9.35275L6.03583 20.769C5.51177 20.5276 4.88741 20.7427 4.62888 21.2635C4.36553 21.794 4.5817 22.4377 5.11217 22.7016L5.14756 22.7193L3.97832 25.2891H1.07276C0.480596 25.2891 0 25.7697 0 26.3619C0 26.954 0.480596 27.4346 1.07276 27.4346H6.43655C7.02872 27.4346 7.50931 26.954 7.50931 26.3619C7.50931 25.7697 7.02872 25.2891 6.43655 25.2891H6.3357L7.07965 23.6547C7.17781 23.6832 7.27704 23.7025 7.37626 23.7025C7.77048 23.7025 8.15028 23.4842 8.33802 23.1071C8.5837 22.6126 8.4088 22.0241 7.95502 21.7324L13.3409 9.90256C13.4862 9.96959 13.638 10.0029 13.7887 10.0029C14.1883 10.0029 14.5718 9.77871 14.7563 9.39409C15.002 8.88292 14.8024 8.27679 14.3165 8.0011C15.2342 6.4547 16.7034 4.50281 18.6263 3.65318C20.6935 2.73973 23.0772 2.75369 24.6986 3.68964C25.891 4.37784 26.576 5.47258 26.7358 6.94438C27.0351 9.70085 26.7813 11.5492 25.9838 12.439C25.9103 12.5211 25.8293 12.5914 25.7467 12.6579V15.0592C26.4075 14.8361 27.0421 14.4719 27.5806 13.8717C28.8207 12.4905 29.2417 10.1487 28.869 6.71317C28.6384 4.58431 27.5377 2.85073 25.7708 1.8316Z" fill="#FF7EB6"/>
<path d="M22.7157 19.9253C23.4157 19.9253 24.0776 20.0846 24.6735 20.3624V15.3092V13.1326V11.8796C24.6735 11.287 24.7298 11.3433 24.1371 11.3433H22.0361C21.4435 11.3433 15.4655 11.8352 13.8864 19.641L12.8731 26.0936C12.8731 26.6863 13.3532 27.4346 13.9459 27.4346H19.0367C18.4241 26.6456 18.0556 25.6586 18.0556 24.5853C18.0556 22.0155 20.1465 19.9253 22.7157 19.9253Z" fill="#FF7EB6"/>
<path d="M25.2099 22.0128C25.0452 21.8535 24.866 21.7098 24.6735 21.5837C24.1098 21.2147 23.4377 20.998 22.7157 20.998C20.7375 20.998 19.1284 22.6072 19.1284 24.5853C19.1284 25.7471 19.6863 26.7791 20.5456 27.4346C20.8449 27.663 21.1801 27.8449 21.5422 27.9709C21.9107 28.0991 22.3044 28.1721 22.7158 28.1721C23.1272 28.1721 23.5209 28.0991 23.8894 27.9709C24.2692 27.8389 24.6205 27.6453 24.9305 27.4013C25.2223 27.1717 25.4793 26.8998 25.6879 26.5919C26.0763 26.0185 26.3037 25.3276 26.3037 24.5848C26.3037 23.8822 26.0977 23.2282 25.7475 22.6747C25.5933 22.4333 25.4142 22.2108 25.2099 22.0128ZM22.7157 22.7858C23.7091 22.7858 24.5147 23.5914 24.5147 24.5848C24.5147 25.5781 23.7091 26.3838 22.7157 26.3838C21.7223 26.3838 20.9167 25.5781 20.9167 24.5848C20.9167 23.5914 21.7218 22.7858 22.7157 22.7858Z" fill="#FF7EB6"/>
</svg>
